<svg width="81" height="81" viewBox="0 0 24 24" fill="none" xmlns="http://www.w3.org/2000/svg">
  <!-- 票据外框 -->
  <path d="M5 4 L19 4 C20.1 4 21 4.9 21 6 L21 18 C21 19.1 20.1 20 19 20 L5 20 C3.9 20 3 19.1 3 18 L3 6 C3 4.9 3.9 4 5 4 Z" stroke="#ff4757" stroke-width="2" fill="none"/>
  <!-- 票据顶部装饰线 -->
  <line x1="3" y1="8" x2="21" y2="8" stroke="#ff4757" stroke-width="1.5" stroke-dasharray="2,2"/>
  <!-- 彩票球（3个圆圈代表号码） -->
  <circle cx="8" cy="12" r="2" stroke="#ff4757" stroke-width="1.5" fill="none"/>
  <circle cx="12" cy="12" r="2" stroke="#ff4757" stroke-width="1.5" fill="none"/>
  <circle cx="16" cy="12" r="2" stroke="#ff4757" stroke-width="1.5" fill="none"/>
  <!-- 号码文字装饰 -->
  <line x1="7" y1="16" x2="17" y2="16" stroke="#ff4757" stroke-width="1" stroke-linecap="round"/>
  <!-- 收藏星标 -->
  <path d="M18 4 L19 6 L21 6 L19.5 7.5 L20 9.5 L18 8.5 L16 9.5 L16.5 7.5 L15 6 L17 6 Z" fill="#ff4757"/>
</svg>
